<?xml version="1.0" encoding="UTF-8"?>
<svg width="138px" height="253px" viewBox="0 0 138 253" version="1.1" xmlns="http://www.w3.org/2000/svg" xmlns:xlink="http://www.w3.org/1999/xlink">
    <!-- Generator: Sketch 41.2 (35397) - http://www.bohemiancoding.com/sketch -->
    <title>Group 2</title>
    <desc>Created with Sketch.</desc>
    <defs>
        <rect id="path-1" x="99.1773543" y="114.785911" width="39" height="15" rx="7.5"></rect>
        <mask id="mask-2" maskContentUnits="userSpaceOnUse" maskUnits="objectBoundingBox" x="0" y="0" width="39" height="15" fill="white">
            <use xlink:href="#path-1"></use>
        </mask>
        <rect id="path-3" x="22" y="0" width="67" height="15" rx="7.5"></rect>
        <mask id="mask-4" maskContentUnits="userSpaceOnUse" maskUnits="objectBoundingBox" x="0" y="0" width="67" height="15" fill="white">
            <use xlink:href="#path-3"></use>
        </mask>
        <path d="M21,224 C21,224 43.3835735,231.68794 54.5002743,231.68794 C65.616975,231.68794 88,224 88,224 L99.5408573,244.299044 C102.272932,249.104449 100.014082,253 94.4901087,253 L14.5098913,253 C8.98836547,253 6.7273306,249.103988 9.45914272,244.299044 L21,224 Z" id="path-5"></path>
        <mask id="mask-6" maskContentUnits="userSpaceOnUse" maskUnits="objectBoundingBox" x="0" y="0" width="92.4008389" height="29" fill="white">
            <use xlink:href="#path-5"></use>
        </mask>
    </defs>
    <g id="Page-1" stroke="none" stroke-width="1" fill="none" fill-rule="evenodd" opacity="0.152853261">
        <g id="Group-2" transform="translate(3.000000, 0.000000)">
            <g id="Group">
                <use id="Rectangle-4" stroke="#FFFFFF" mask="url(#mask-2)" stroke-width="8" transform="translate(118.677354, 122.285911) rotate(-315.000000) translate(-118.677354, -122.285911) " xlink:href="#path-1"></use>
                <rect id="Rectangle-5" fill="#FFFFFF" transform="translate(97.422824, 128.677962) rotate(-46.000000) translate(-97.422824, -128.677962) " x="84.0856137" y="125.677962" width="26.6744214" height="6"></rect>
                <rect id="Rectangle-5-Copy" fill="#FFFFFF" transform="translate(111.422824, 143.677962) rotate(-46.000000) translate(-111.422824, -143.677962) " x="98.0856137" y="140.677962" width="26.6744214" height="6"></rect>
                <rect id="Rectangle" fill="#FFFFFF" x="30" y="15" width="4" height="117"></rect>
                <rect id="Rectangle-Copy" fill="#FFFFFF" x="75" y="15" width="4" height="117"></rect>
                <circle id="Oval" stroke="#FFFFFF" stroke-width="5" cx="54.5" cy="180.5" r="54.5"></circle>
                <use id="Rectangle-2" stroke="#FFFFFF" mask="url(#mask-4)" stroke-width="8" xlink:href="#path-3"></use>
                <use id="Rectangle-3" stroke="#FFFFFF" mask="url(#mask-6)" stroke-width="12" xlink:href="#path-5"></use>
            </g>
            <circle id="Oval-2" fill="#FFFFFF" cx="69.5" cy="175.5" r="2.5"></circle>
            <circle id="Oval-2-Copy-3" fill="#FFFFFF" cx="66.5" cy="161.5" r="2.5"></circle>
            <circle id="Oval-2-Copy-4" fill="#FFFFFF" cx="77.5" cy="156.5" r="2.5"></circle>
            <circle id="Oval-2-Copy" fill="#FFFFFF" cx="63" cy="196" r="4"></circle>
            <circle id="Oval-2-Copy-2" fill="#FFFFFF" cx="47" cy="186" r="6"></circle>
        </g>
    </g>
</svg>